<svg xmlns="http://www.w3.org/2000/svg" viewBox="0 0 200 200">
  <defs>
    <radialGradient id="planetGrad" cx="35%" cy="30%" r="75%">
      <stop offset="0%" stop-color="#ffe9ff"/>
      <stop offset="35%" stop-color="#c88bff"/>
      <stop offset="70%" stop-color="#7b5cff"/>
      <stop offset="100%" stop-color="#3d2a8f"/>
    </radialGradient>
    <linearGradient id="ringGrad" x1="0%" y1="0%" x2="100%" y2="0%">
      <stop offset="0%" stop-color="#6fe3ff"/>
      <stop offset="50%" stop-color="#ffd76f"/>
      <stop offset="100%" stop-color="#ff6fd8"/>
    </linearGradient>
    <radialGradient id="bgGlow" cx="50%" cy="50%" r="50%">
      <stop offset="0%" stop-color="#241a5e"/>
      <stop offset="100%" stop-color="#0b0c2a"/>
    </radialGradient>
  </defs>

  <circle cx="100" cy="100" r="96" fill="url(#bgGlow)"/>

  <g opacity="0.9">
    <circle cx="34" cy="46" r="2.2" fill="#ffffff"/>
    <circle cx="162" cy="36" r="1.6" fill="#ffffff"/>
    <circle cx="172" cy="150" r="2" fill="#ffffff"/>
    <circle cx="26" cy="140" r="1.8" fill="#ffd76f"/>
    <circle cx="150" cy="168" r="1.4" fill="#6fe3ff"/>
    <circle cx="150" cy="24" r="1.4" fill="#ff6fd8"/>
  </g>

  <ellipse cx="100" cy="108" rx="66" ry="15" fill="none" stroke="url(#ringGrad)" stroke-width="6" opacity="0.85" transform="rotate(-14 100 108)"/>

  <circle cx="100" cy="100" r="46" fill="url(#planetGrad)"/>
  <ellipse cx="100" cy="100" rx="46" ry="46" fill="none" stroke="#ffffff" stroke-opacity="0.15" stroke-width="1.5"/>

  <circle cx="82" cy="84" r="7" fill="#ffffff" opacity="0.25"/>
  <circle cx="112" cy="112" r="5" fill="#3d2a8f" opacity="0.35"/>
  <circle cx="118" cy="86" r="3.5" fill="#3d2a8f" opacity="0.25"/>

  <ellipse cx="100" cy="108" rx="66" ry="15" fill="none" stroke="url(#ringGrad)" stroke-width="6" opacity="0.55" transform="rotate(-14 100 108)" style="mix-blend-mode:screen"/>
  <path d="M 34 122 A 66 15 0 0 1 100 108" fill="none" stroke="#0b0c2a" stroke-width="7" opacity="0.9" transform="rotate(-14 100 108)"/>
</svg>
